<svg width="44" height="49" viewBox="0 0 44 49" fill="none" xmlns="http://www.w3.org/2000/svg">
<line x1="4.50002" y1="5" x2="4.50001" y2="49" stroke="#706C61" stroke-width="7"/>
<path d="M2.82947 3L39.728 38.3138" stroke="#706C61" stroke-width="7"/>
<path d="M41.9197 42.4263C42.7473 42.3881 43.3872 41.6864 43.3491 40.8588L42.7277 27.3731C42.6895 26.5456 41.9878 25.9056 41.1602 25.9437C40.3327 25.9819 39.6927 26.6837 39.7309 27.5112L40.2832 39.4985L28.2959 40.0508C27.4684 40.089 26.8284 40.7907 26.8666 41.6183C26.9047 42.4458 27.6065 43.0858 28.434 43.0477L41.9197 42.4263ZM2.41688 6.99813L40.84 42.0362L42.8614 39.8195L4.43831 4.78141L2.41688 6.99813Z" fill="#706C61"/>
</svg>
