<svg width="28" height="30" viewBox="0 0 28 30" fill="none" xmlns="http://www.w3.org/2000/svg">
<path d="M11.6253 23.9572C11.6253 18.3395 11.3987 12.6701 11.809 7.06378C12.1613 2.24853 12.6285 -0.913527 14.8388 5.31935C16.934 11.2281 18.426 17.3285 20.5311 23.2227C20.8165 24.0217 22.4117 26.8008 20.5311 25.6098C16.809 23.2525 13.1879 20.6701 9.33003 18.5403C7.16435 17.3446 4.06738 16.8375 2.07688 15.5105C1.61362 15.2016 11.9492 11.3465 12.3598 11.1953C15.9657 9.86788 19.6282 8.54208 23.0559 6.78834C23.6609 6.47883 25.2142 5.04391 26.0398 5.04391C27.1524 5.04391 21.8647 14.2767 20.7147 15.235C17.3727 18.0201 15.7157 21.5778 12.9107 24.7835C11.7912 26.0629 10.8908 30.9876 10.8908 26.1148C10.8908 21.5925 11.6253 17.1146 11.6253 12.5725C11.6253 9.12306 14.6535 18.7788 16.3996 21.7537C18.5761 25.4618 19.2939 28.1098 15.2978 23.3145C13.0639 20.6338 10.6491 17.4554 7.49379 15.8777C3.90749 14.0846 15.0887 13.2705 16.4914 12.7561C19.4158 11.6838 22.5705 8.07447 25.2594 7.47693C26.5191 7.197 25.8782 7.46711 25.2135 7.89008C21.4747 10.2693 18.6892 14.0816 14.9306 16.3368C13.928 16.9383 14.0775 7.08211 14.1043 6.14566C14.1558 4.34075 15.503 10.4261 15.5733 11.0117C16.0899 15.317 16.0891 14.3904 17.3636 10.4608C18.5048 6.94215 16.4329 12.1121 19.108 5.87022C21.8588 -0.548372 17.5252 7.67851 16.5832 6.97196C15.3239 6.02748 13.2237 10.9907 14.5633 6.97196C14.9452 5.82632 16.8923 2.92495 15.6651 5.87022C14.3882 8.93463 13.517 10.1905 16.5832 12.3889C18.0712 13.4558 19.555 14.5251 21.0361 15.6023C21.8431 16.1892 24.2994 16.7932 23.4691 17.3467C22.6983 17.8606 20.0519 17.3467 19.0621 17.3467C18.6864 17.3467 20.9938 17.9614 21.541 18.3567C22.5485 19.0843 24.2555 21.8003 25.4889 21.9373C27.888 22.2039 22.3023 17.3467 19.8884 17.3467C14.3659 17.3467 17.744 16.4303 15.2978 20.9733C13.3176 24.6508 13.5793 18.9993 11.9926 18.9993C9.85193 18.9993 6.14908 19.3084 5.15259 21.7996C4.80328 22.6729 6.82868 20.7438 7.76923 20.7438C8.09926 20.7438 6.8329 22.3823 6.66748 22.6718C6.01932 23.8061 6.57567 22.1518 6.57567 21.9832C6.57567 21.4016 4.83093 23.3155 5.01487 22.7636C5.84299 20.2793 8.34449 18.0784 10.2482 16.4286C10.4837 16.2245 14.501 13.8572 13.737 13.3988C11.7124 12.184 4.86503 10.8281 2.30641 10.8281C1.61882 10.8281 4.00494 12.2829 4.00494 11.0576C4.00494 10.513 1.74254 8.31969 2.62776 8.7623C3.62316 9.26 5.61414 10.4199 6.11661 11.4248C6.31029 11.8122 5.3211 10.43 5.01487 10.7363" stroke="#FFB800" stroke-width="3" stroke-linecap="round"/>
</svg>
