<svg width="44" height="81" viewBox="0 0 44 81" fill="none" xmlns="http://www.w3.org/2000/svg">
<line x1="3.5" y1="37" x2="3.5" y2="81" stroke="#706C61" stroke-width="7"/>
<path d="M2.52515 39.2339L39.5 4" stroke="#706C61" stroke-width="7"/>
<path d="M43.7089 1.99992C43.7089 1.17149 43.0373 0.499919 42.2089 0.499917L28.7089 0.499919C27.8805 0.499918 27.2089 1.17149 27.2089 1.99992C27.2089 2.82834 27.8805 3.49992 28.7089 3.49992L40.7089 3.49992L40.7089 15.4999C40.7089 16.3283 41.3805 16.9999 42.2089 16.9999C43.0373 16.9999 43.7089 16.3283 43.7089 15.4999L43.7089 1.99992ZM6.50002 39.8301L43.2696 3.06058L41.1483 0.939258L4.3787 37.7088L6.50002 39.8301Z" fill="#706C61"/>
</svg>
