<svg width="33" height="29" viewBox="0 0 33 29" fill="none" xmlns="http://www.w3.org/2000/svg">
<path d="M1.59473 26.7361C3.37384 26.2679 5.05389 25.3499 6.74437 24.6471C11.7108 22.5821 16.8353 20.8393 21.9504 19.1816C25.0328 18.1827 28.2815 17.6947 31.3266 16.6797" stroke="#D18A00" stroke-width="3" stroke-linecap="round"/>
<path d="M18.4548 1.65592C17.1849 0.666915 14.6409 0.894622 13.3895 1.68753C11.9334 2.6102 11.2798 3.81435 10.7723 5.34642C10.3382 6.65698 10.0588 7.96698 10.0324 9.34117C10.0272 9.61012 9.81169 10.5897 10.5651 10.5661C11.7568 10.5286 13.8821 9.12763 14.5311 8.70896C16.5261 7.42215 18.5929 5.97733 19.5457 3.81332C19.6626 3.5477 19.7752 2.6891 19.6725 2.95984C19.4026 3.67204 19.0452 5.11628 18.9115 5.74945C18.6388 7.0405 17.9946 9.24874 19.0087 10.4673C19.5629 11.1331 20.2638 11.1033 21.0256 10.7676C22.0406 10.3202 23.0007 9.70804 23.6639 8.84726C24.4817 7.78582 24.6327 6.70625 25 5.49657" stroke="#D18A00" stroke-width="2" stroke-linecap="round"/>
</svg>
