<svg width="155" height="51" viewBox="0 0 155 51" fill="none" xmlns="http://www.w3.org/2000/svg">
<rect x="2.13794" y="2.06055" width="150.724" height="46.3636" rx="5" fill="#FFF9F1"/>
<path d="M5.67062 0.249318C2.83067 0.892171 0.751751 2.9771 0.194898 5.73963C-0.0649662 6.99059 -0.0649662 44.1024 0.194898 45.3707C0.640381 47.6467 2.14388 49.4363 4.42698 50.444L5.67062 51H77.5046H149.339L150.694 50.4093C152.16 49.7664 153.385 48.6892 154.053 47.473C155.019 45.7008 155 46.2047 155 25.5986C155 12.255 154.944 6.174 154.796 5.53114C154.202 2.87286 151.956 0.77055 149.097 0.197194C147.612 -0.0981708 6.96994 -0.0460475 5.67062 0.249318ZM149.394 1.65665C150.749 2.03888 152.179 3.18559 152.865 4.43655L153.422 5.46164V25.5291V45.6139L152.902 46.6043C152.253 47.8205 151.028 48.8803 149.673 49.3494L148.67 49.6969L77.1705 49.6622L5.67062 49.61L4.87246 49.2104C3.64739 48.6023 2.66361 47.6815 2.10676 46.6043L1.58703 45.6139L1.53135 26.0677C1.49422 12.4983 1.54991 6.24349 1.6984 5.61801C2.06964 3.89795 3.57314 2.31687 5.42931 1.72614C6.37596 1.4134 9.12311 1.4134 77.4304 1.39603C140.912 1.39603 148.54 1.43078 149.394 1.65665Z" fill="#2A2619"/>
<path d="M34.3485 6.93835C32.678 7.44221 31.7313 7.98082 30.5248 9.11016C28.9842 10.5522 28.2046 12.0812 28.0747 13.8534L27.9818 15.1738L29.1698 15.087C30.7661 15.0001 31.9541 14.4267 33.3462 13.1236C35.0724 11.4905 36.149 9.1449 35.982 7.35534C35.9077 6.55612 35.7221 6.52137 34.3485 6.93835Z" fill="#2A2619"/>
<path d="M84.8365 15.4694V19.813H85.3934H85.9503V15.4694V11.1258H85.3934H84.8365V15.4694Z" fill="#2A2619"/>
<path d="M104.883 12.8111C104.883 14.4443 104.883 14.4791 104.531 14.1837C104.326 14.0099 103.825 13.8362 103.398 13.7841C102.285 13.6451 101.264 14.1316 100.67 15.0698C100.261 15.73 100.206 15.9733 100.28 17.1026C100.336 18.1624 100.428 18.4752 100.855 18.9964C101.746 20.091 103.547 20.2821 104.586 19.3786L105.069 18.9617V19.3786C105.069 19.7435 105.162 19.813 105.626 19.813H106.183V15.4694V11.1258H105.533H104.883V12.8111ZM104.308 15.0524C104.846 15.4694 104.883 15.5563 104.883 16.7725C104.883 17.8844 104.828 18.1277 104.438 18.5447C103.807 19.2223 102.619 19.2223 101.988 18.5447C101.134 17.6064 101.189 15.9559 102.099 15.0872C102.767 14.4617 103.547 14.4443 104.308 15.0524Z" fill="#2A2619"/>
<path d="M131.835 15.417L131.891 19.7258L132.503 19.778L133.097 19.8301V17.6757C133.097 15.6081 133.116 15.5212 133.561 15.1216C134.137 14.6178 135.176 14.5656 135.659 15C135.919 15.2606 135.993 15.7123 136.03 17.554L136.104 19.8127H136.735H137.366V17.8494C137.366 16.7896 137.274 15.6255 137.181 15.278C136.754 13.8707 135.102 13.3147 133.802 14.1486L133.116 14.583L133.06 12.8977L133.004 11.2124L132.392 11.1602L131.798 11.1081L131.835 15.417Z" fill="#2A2619"/>
<path d="M53.3372 11.5949C53.1516 11.647 53.0959 12.6548 53.0959 15.73V19.7783L54.1725 19.8478C55.7131 19.9346 57.4208 19.7088 58.2932 19.2918C60.8919 18.0582 61.2445 13.7146 58.8686 12.2204C58.5345 11.9945 57.9405 11.7513 57.5693 11.647C56.9011 11.4733 53.7456 11.4212 53.3372 11.5949ZM57.4579 12.6721C58.3303 13.0544 58.7201 13.4366 59.0171 14.2358C59.4997 15.5737 59.0914 17.3459 58.089 18.1972C57.4394 18.7358 56.7526 18.9443 55.4904 18.9443H54.3952V15.6432V12.342H55.5646C56.2885 12.342 56.9939 12.4636 57.4579 12.6721Z" fill="#2A2619"/>
<path d="M128.512 12.3421C128.16 12.4811 128.085 12.6375 128.085 13.2108C128.085 13.8363 128.048 13.9058 127.621 13.9058C127.25 13.9058 127.157 13.9927 127.157 14.3401C127.157 14.6876 127.25 14.7745 127.621 14.7745H128.085V16.5988C128.085 18.5795 128.345 19.483 128.976 19.7957C129.44 20.0216 130.313 20.039 130.647 19.8305C130.944 19.6567 130.851 19.0139 130.536 19.066C130.424 19.1007 130.109 19.0312 129.849 18.9444C129.385 18.788 129.385 18.7533 129.385 16.7726V14.7745H130.127C130.795 14.7745 130.87 14.7224 130.87 14.3401C130.87 13.9579 130.795 13.9058 130.146 13.9058H129.403L129.348 13.0892C129.292 12.2205 129.162 12.0988 128.512 12.3421Z" fill="#2A2619"/>
<path d="M63.0265 13.9752C62.3397 14.2532 61.7271 14.8787 61.4673 15.5215C61.1889 16.1991 61.2074 17.6238 61.523 18.3014C62.4696 20.4385 65.9778 20.4906 67.1286 18.3883C67.537 17.6412 67.5184 15.9733 67.0729 15.174C66.4233 13.9752 64.4372 13.3845 63.0265 13.9752ZM65.5323 15.0872C66.4975 15.9906 66.4975 17.6238 65.5509 18.5794C64.1773 19.952 62.1355 18.4578 62.4696 16.3555C62.7295 14.7223 64.4 14.0447 65.5323 15.0872Z" fill="#2A2619"/>
<path d="M80.1961 13.8536C80.0476 13.9057 79.6949 14.1142 79.4165 14.2879C78.8968 14.618 78.8968 14.618 78.8968 14.2705C78.8968 13.9752 78.7854 13.9057 78.3399 13.9057H77.7831V16.8593V19.813H78.4327H79.0824V17.7454C79.0824 15.8342 79.1195 15.6258 79.5093 15.2261C79.7321 14.9655 80.1775 14.7223 80.5117 14.6702C80.9757 14.5833 81.1984 14.6528 81.5697 15.0003C82.0337 15.4346 82.0523 15.5215 82.0523 17.6412V19.813H82.7019H83.3516V17.7281C83.3516 15.5041 83.166 14.7744 82.4606 14.1837C82.0523 13.8536 80.6973 13.6624 80.1961 13.8536Z" fill="#2A2619"/>
<path d="M89.1057 13.9232C87.8621 14.4097 87.2495 15.4001 87.2495 16.9116C87.2495 18.1105 87.6208 18.8576 88.5674 19.5004C89.7368 20.317 91.8343 19.9695 92.7809 18.8228C93.1893 18.3016 93.2821 17.9889 93.3378 16.9638C93.3935 15.9039 93.3564 15.6433 92.9666 15.1395C92.2983 14.2186 91.6487 13.8537 90.5535 13.7842C90.0152 13.7669 89.3656 13.819 89.1057 13.9232ZM91.4074 14.9831C91.6672 15.2089 91.9828 15.7476 92.1127 16.1819C92.6881 18.2668 90.5721 19.9869 89.1057 18.6317C87.695 17.3113 88.4932 14.6008 90.2937 14.6008C90.702 14.6008 91.1104 14.7398 91.4074 14.9831Z" fill="#2A2619"/>
<path d="M95.3796 13.9056C94.5814 14.1315 94.4701 14.2357 94.6743 14.6006C94.8413 14.8786 94.9527 14.9133 95.3425 14.7743C96.5861 14.3226 97.8298 14.7396 97.8298 15.5909C97.8298 15.8863 97.6627 15.9732 96.8831 16.06C95.0826 16.2859 94.1174 17.0504 94.1174 18.2492C94.1174 18.979 94.3958 19.4133 95.0826 19.7434C95.8251 20.1083 96.9759 19.9693 97.5513 19.4654L97.9597 19.1006L98.0711 19.4481C98.1267 19.7087 98.3124 19.8129 98.6465 19.8129H99.1291V17.728C99.1291 15.2434 98.8692 14.4269 97.9226 14.0099C97.2729 13.7145 96.1963 13.6624 95.3796 13.9056ZM97.9597 17.589C97.7741 18.9442 96.1778 19.6566 95.491 18.6836C94.8413 17.7627 95.6952 16.8766 97.2543 16.8593H98.0711L97.9597 17.589Z" fill="#2A2619"/>
<path d="M112.215 13.9749C111.009 14.4788 110.452 15.4344 110.452 17.0154C110.452 18.6486 111.473 19.7432 113.143 19.917C113.886 19.9865 114.238 19.9343 114.888 19.6042C116.095 19.0135 116.466 18.4575 116.54 17.0328C116.614 16.0425 116.54 15.7297 116.187 15.139C115.463 13.9228 113.626 13.3842 112.215 13.9749ZM114.721 15.0869C116.169 16.4421 115.241 19.1177 113.329 19.1177C112.679 19.1177 111.807 18.249 111.64 17.4498C111.213 15.2954 113.255 13.7317 114.721 15.0869Z" fill="#2A2619"/>
<path d="M120.011 13.9057C119.788 13.9752 119.51 14.1663 119.38 14.3227C119.046 14.7049 118.805 14.6702 118.805 14.2532C118.805 13.9926 118.675 13.9057 118.341 13.9057H117.876V16.8593V19.813H118.433H118.99V17.7281C118.99 15.7474 119.009 15.6084 119.436 15.2088C120.419 14.2879 121.589 14.5485 121.941 15.7647C122.053 16.1296 122.146 17.1895 122.146 18.1103V19.813H122.703H123.259V17.7281C123.259 15.2088 122.981 14.34 122.034 13.9752C121.348 13.7146 120.586 13.6798 120.011 13.9057Z" fill="#2A2619"/>
<path d="M140.058 14.0444C139.204 14.5656 138.814 15.0348 138.573 15.9556C138.127 17.5367 138.721 19.0309 140.021 19.6216C140.893 20.0212 141.914 20.0907 142.991 19.7953C143.677 19.6216 143.77 19.5174 143.584 19.0656C143.492 18.8745 143.325 18.8571 142.675 18.9961C142.229 19.083 141.58 19.1177 141.209 19.0482C140.429 18.9093 139.594 18.0927 139.594 17.4498V17.0328H141.821H144.049V16.4247C144.049 15.6255 143.659 14.7915 143.046 14.2703C142.378 13.6969 140.837 13.5753 140.058 14.0444ZM142.1 14.7046C142.397 14.8089 142.935 15.6429 142.935 15.9904C142.935 16.0946 142.304 16.1641 141.246 16.1641C139.594 16.1641 139.575 16.1641 139.687 15.7645C139.965 14.8958 141.134 14.3745 142.1 14.7046Z" fill="#2A2619"/>
<path d="M67.8711 14.2879C68.1495 15.1045 69.6159 19.7261 69.6159 19.7782C69.6159 19.813 69.8757 19.813 70.2099 19.7782C70.7853 19.7261 70.8038 19.6914 71.5834 17.5543C72.0104 16.3555 72.4001 15.5041 72.4558 15.6431C72.5115 15.7821 72.8642 16.7898 73.2354 17.8497C73.8851 19.7435 73.9408 19.813 74.4419 19.813C74.9617 19.813 74.9988 19.7609 75.9269 17.0678C76.4466 15.5736 76.9107 14.2358 76.9478 14.1142C77.0035 13.9752 76.8178 13.9057 76.4095 13.9057H75.797L75.1844 16.0775C74.8317 17.2763 74.4976 18.2493 74.4234 18.2493C74.3677 18.2493 74.2192 17.9192 74.0893 17.5022C72.9384 13.8536 72.9756 13.9057 72.4001 13.9057C71.8619 13.9057 71.8433 13.9578 71.1008 16.1644C70.6925 17.3979 70.3212 18.423 70.2841 18.423C70.247 18.423 69.95 17.3979 69.6159 16.1644L68.9848 13.9057H68.3722C67.7968 13.9057 67.7411 13.9404 67.8711 14.2879Z" fill="#2A2619"/>
<path d="M33.4205 15.6952C32.9564 15.8169 31.62 16.2338 30.432 16.5987L28.2788 17.2589L25.9772 16.5118C23.0444 15.5736 21.2811 15.4172 19.3692 15.9558C16.0466 16.9114 13.5037 19.5524 12.5013 23.1141C12.0559 24.6778 12.0559 28.4133 12.5013 30.4114C13.448 34.5812 15.7125 38.7511 18.5154 41.4789C20.6314 43.5464 21.9678 43.7723 25.2718 42.6951C28.4645 41.67 29.4482 41.6874 32.8079 42.8167C34.4413 43.3727 36.1119 43.4074 37.2256 42.9383C38.2094 42.5213 39.453 41.3746 40.8452 39.5851C42.0145 38.1082 43.7222 35.0851 43.9264 34.1295C44.0192 33.643 43.9635 33.5735 42.9241 32.9654C40.0099 31.2801 38.4507 28.1179 38.9704 24.9211C39.3045 22.7492 40.4368 21.0639 42.4972 19.6045L43.1283 19.1527L42.4972 18.4404C41.6619 17.45 39.9542 16.425 38.4507 15.9732C36.9101 15.5215 34.5527 15.3825 33.4205 15.6952Z" fill="#2A2619"/>
<path d="M99.3518 24.4695C97.6627 25.0429 96.716 26.1896 96.716 27.7012C96.716 29.456 97.4399 30.2552 100.15 31.4714C101.171 31.9231 102.136 32.4096 102.303 32.5312C103.046 33.1046 103.25 34.3556 102.749 35.259C102.155 36.3536 99.7973 36.7011 97.8483 35.9714C97.31 35.7803 96.8274 35.6413 96.8088 35.6586C96.7903 35.6934 96.6789 35.9888 96.549 36.3189C96.3077 37.0138 96.4933 37.2397 97.6441 37.5351C101.598 38.6123 104.995 36.9617 104.957 33.9733C104.939 32.1143 104.234 31.3672 101.245 30.0641C99.1476 29.1432 98.5722 28.622 98.5722 27.6143C98.5722 26.6934 99.259 25.9811 100.41 25.7205C101.171 25.5641 101.524 25.5641 102.563 25.8073C103.918 26.1375 104.066 26.0853 104.252 25.2687C104.345 24.7649 104.308 24.7128 103.732 24.5216C102.6 24.122 100.447 24.1046 99.3518 24.4695Z" fill="#2A2619"/>
<path d="M59.3884 24.7819C58.9986 25.7549 54.7665 37.4826 54.7665 37.6042C54.7665 37.6737 55.1934 37.7085 55.7317 37.6737L56.6783 37.6216L57.4208 35.5714L58.1447 33.5213L60.6691 33.5734L63.175 33.6255L63.9174 35.6583L64.6413 37.7085H65.5323C66.0335 37.7085 66.479 37.6564 66.5161 37.5695C66.5532 37.5 65.9035 35.5714 65.0497 33.278C64.2144 30.9846 63.1193 28.0309 62.6367 26.7105L61.7828 24.3302H60.6877C59.6668 24.3302 59.574 24.3649 59.3884 24.7819ZM61.7457 29.4035L62.7295 32.1487H60.6877C59.2955 32.1487 58.6644 32.0792 58.6644 31.9576C58.6644 31.5058 60.6134 26.224 60.6877 26.4325C60.7248 26.5715 61.2074 27.9093 61.7457 29.4035Z" fill="#2A2619"/>
<path d="M108.558 25.5985L107.872 25.7722L107.816 26.919L107.76 28.0657L106.962 28.1178C106.164 28.1699 106.164 28.1699 106.22 28.8128C106.275 29.4383 106.294 29.4556 107.074 29.5077L107.853 29.5599V32.7741C107.853 36.2838 107.983 36.8919 108.855 37.4131C109.524 37.8301 110.285 37.9517 111.287 37.8127C112.122 37.6911 112.122 37.6737 112.122 36.9961V36.3185H111.194C110.433 36.3185 110.229 36.249 110.006 35.9189C109.691 35.4498 109.449 32.0792 109.616 30.4981L109.746 29.3688H111.027H112.308V28.7606V28.1699L110.972 28.1178L109.616 28.0657L109.561 26.7105C109.524 25.9807 109.449 25.39 109.375 25.39C109.301 25.4074 108.93 25.4943 108.558 25.5985Z" fill="#2A2619"/>
<path d="M71.8804 28.3436C71.4535 28.5521 70.9338 28.8996 70.7481 29.1254C70.3398 29.6119 70.1727 29.5077 70.1727 28.7258C70.1727 28.1525 70.1542 28.1525 69.3374 28.1525H68.5022V34.8416V41.5308H69.5231H70.544V39.081V36.6485L71.1565 37.0829C72.9756 38.386 75.7041 37.9864 77.1705 36.1794C77.9501 35.2238 78.2285 34.303 78.21 32.6698C78.21 30.637 77.319 29.0907 75.7041 28.3088C74.7389 27.8397 72.9384 27.8571 71.8804 28.3436ZM74.8317 29.7683C76.2795 30.6544 76.7993 33.2779 75.8712 34.9459C75.4071 35.7625 74.2192 36.4922 73.3282 36.4922C72.5486 36.4748 71.3236 35.8493 70.9338 35.2586C70.1542 34.0771 70.247 31.5405 71.0823 30.4285C71.899 29.3687 73.6809 29.0559 74.8317 29.7683Z" fill="#2A2619"/>
<path d="M84.0941 28.2393C83.7414 28.3957 83.166 28.7606 82.8504 29.0559L82.2379 29.6119V28.8822V28.1525H81.4026H80.5673V34.8416V41.5308H81.4954H82.4235V38.9941V36.4574L83.0546 36.9787C84.2982 37.9864 86.0245 38.1254 87.7507 37.3435C90.8134 35.9536 91.0918 30.4806 88.2148 28.5868C87.528 28.1525 87.2124 28.0656 86.0802 28.0308C85.1706 27.9961 84.5395 28.0656 84.0941 28.2393ZM86.6927 29.6814C88.6231 30.6544 88.9016 34.3378 87.1567 35.7625C85.9502 36.7702 84.2426 36.6659 83.1845 35.5366C82.5163 34.8069 82.3493 34.0945 82.4606 32.4092C82.5349 31.471 82.6648 31.0192 82.9804 30.5849C83.8713 29.4034 85.3934 29.0386 86.6927 29.6814Z" fill="#2A2619"/>
<path d="M116.299 28.396C114.424 29.2299 113.514 30.7067 113.514 32.9307C113.533 35.3805 114.74 37.0484 116.93 37.6565C118.619 38.1083 120.661 37.6739 121.923 36.5967C123.742 35.0677 123.928 31.3149 122.313 29.4732C120.995 28.0137 118.285 27.5099 116.299 28.396ZM119.733 29.5774C121.923 30.6199 122.146 34.616 120.085 35.9886C119.213 36.5619 117.672 36.5793 116.818 36.0059C114.665 34.5812 115.036 30.4288 117.412 29.4384C118.211 29.1083 118.805 29.1431 119.733 29.5774Z" fill="#2A2619"/>
<path d="M128.809 28.3784C128.475 28.5869 127.993 29.0386 127.77 29.3514L127.343 29.9421V29.0386V28.1525H126.508H125.672L125.71 32.8784L125.765 37.6216H126.693H127.603L127.64 34.6332C127.677 32.1139 127.733 31.5405 128.011 31.0019C128.457 30.168 129.125 29.7162 130.09 29.5946L130.87 29.4904V28.7433V27.9788H130.146C129.719 27.9788 129.199 28.1351 128.809 28.3784Z" fill="#2A2619"/>
<path d="M134.489 28.309C133.58 28.6912 132.633 29.6642 132.132 30.7414C131.668 31.7144 131.594 33.6256 131.965 34.807C132.299 35.9016 133.431 37.0831 134.545 37.4827C135.603 37.8649 137.997 37.8997 139.26 37.5522C140.076 37.3437 140.132 37.2742 140.039 36.8572C139.835 35.9711 139.854 35.9885 138.926 36.2491C137.181 36.7356 135.213 36.4055 134.341 35.4846C133.97 35.1024 133.487 33.9904 133.468 33.4866C133.468 33.2086 133.765 33.1912 137.106 33.1912H140.763L140.67 32.0097C140.578 30.7935 139.965 29.3862 139.278 28.8129C138.276 27.9615 135.881 27.7009 134.489 28.309ZM137.645 29.5426C138.313 29.9248 138.851 30.8109 138.851 31.5233V31.9924L136.215 31.9402C133.246 31.8881 133.283 31.9055 134.007 30.585C134.712 29.2993 136.383 28.8129 137.645 29.5426Z" fill="#2A2619"/>
</svg>
