<svg width="204" height="71" viewBox="0 0 204 71" fill="none" xmlns="http://www.w3.org/2000/svg">
<rect x="1" y="3" width="203" height="68" rx="10" fill="url(#paint0_linear_0_1)"/>
<path d="M7.46326 0.347095C3.72552 1.24205 0.989402 4.1446 0.256512 7.99048C-0.0855039 9.73201 -0.0855039 61.3974 0.256512 63.1631C0.842824 66.3317 2.82163 68.8231 5.82648 70.226V70.226C6.90425 70.7357 8.08163 71 9.27384 71H102.006H194.585C195.879 71 197.157 70.7194 198.332 70.1776V70.1776C200.262 69.2827 201.875 67.783 202.754 66.0899C204.024 63.6227 204 64.3241 204 35.6373C204 17.0609 203.927 8.59517 203.731 7.70022C202.949 3.99947 199.994 1.07273 196.231 0.274531C194.277 -0.136664 9.17334 -0.0640998 7.46326 0.347095ZM196.622 2.30632C198.406 2.83845 200.287 4.43485 201.191 6.17638V6.17638C201.672 7.11426 201.923 8.15342 201.923 9.20775V35.5405V61.9627C201.923 62.975 201.689 63.9736 201.239 64.8805V64.8805C200.384 66.5736 198.772 68.0491 196.989 68.7021V68.7021C196.116 69.0221 195.194 69.1857 194.264 69.1852L101.566 69.1375L8.65196 69.0659C7.87133 69.0653 7.10265 68.874 6.41279 68.5086V68.5086C4.80043 67.6621 3.50566 66.3801 2.77277 64.8805V64.8805C2.32277 63.9735 2.08732 62.9752 2.08459 61.9627L2.01545 36.2903C1.96659 17.3996 2.03988 8.69193 2.23531 7.82116C2.72391 5.42656 4.70271 3.22546 7.14568 2.40307C8.39159 1.96769 12.0072 1.96769 101.908 1.9435C185.458 1.9435 195.498 1.99187 196.622 2.30632Z" fill="#FFF9F1"/>
<path d="M45.2071 9.65944C43.0084 10.3609 41.7625 11.1107 40.1746 12.6829C38.1469 14.6905 37.1209 16.8191 36.9499 19.2862L36.9317 19.5598C36.8769 20.3852 37.5665 21.0674 38.3912 21.0036V21.0036C40.4922 20.8826 42.0557 20.0844 43.8879 18.2703C46.1599 15.9967 47.5768 12.7313 47.3569 10.2399C47.2592 9.1273 47.0149 9.07893 45.2071 9.65944Z" fill="#FFF9F1"/>
<path d="M111.656 21.5358V26.8499C111.656 27.2546 111.984 27.5828 112.389 27.5828V27.5828V27.5828C112.793 27.5828 113.122 27.2546 113.122 26.8499V21.5358V16.2217C113.122 15.8169 112.793 15.4888 112.389 15.4888V15.4888V15.4888C111.984 15.4888 111.656 15.8169 111.656 16.2217V21.5358Z" fill="#FFF9F1"/>
<path d="M138.04 17.835C138.04 20.1087 138.04 20.1571 137.576 19.7459C137.307 19.504 136.647 19.2621 136.085 19.1896C134.62 18.9961 133.276 19.6733 132.494 20.9795C131.957 21.8986 131.884 22.2372 131.981 23.8095C132.055 25.2849 132.177 25.7203 132.739 26.4459C133.911 27.9698 136.281 28.2358 137.649 26.9781L137.856 26.7892C138.02 26.6391 138.284 26.7556 138.284 26.9781V26.9781C138.284 27.486 138.406 27.5828 139.017 27.5828V27.5828C139.422 27.5828 139.75 27.2546 139.75 26.8499V21.5358V16.3439C139.75 15.8716 139.367 15.4888 138.895 15.4888V15.4888V15.4888C138.423 15.4888 138.04 15.8716 138.04 16.3439V17.835ZM137.283 20.9553C137.991 21.5358 138.04 21.6567 138.04 23.3499C138.04 24.8979 137.967 25.2365 137.454 25.8171C136.623 26.7604 135.059 26.7604 134.229 25.8171C133.105 24.5109 133.178 22.2131 134.375 21.0037C135.255 20.1329 136.281 20.1087 137.283 20.9553Z" fill="#FFF9F1"/>
<path d="M173.512 21.4632L173.575 26.6524C173.581 27.1122 173.933 27.4932 174.391 27.5344V27.5344V27.5344C174.811 27.5733 175.173 27.2432 175.173 26.8218V24.6076C175.173 21.7293 175.197 21.6083 175.784 21.052C176.541 20.3506 177.909 20.278 178.544 20.8827C178.886 21.2455 178.984 21.8744 179.033 24.4383L179.105 26.7525C179.119 27.2152 179.498 27.5827 179.961 27.5827V27.5827V27.5827C180.42 27.5827 180.792 27.2109 180.792 26.7521V24.8495C180.792 23.374 180.67 21.7535 180.547 21.2697C179.986 19.3105 177.811 18.5365 176.101 19.6975V19.6975C175.708 19.9608 175.178 19.6885 175.163 19.2152L175.124 17.956L175.076 16.4188C175.062 15.957 174.705 15.5786 174.245 15.5372V15.5372V15.5372C173.826 15.4983 173.466 15.8295 173.469 16.2497L173.512 21.4632Z" fill="#FFF9F1"/>
<path d="M70.1987 16.1418C69.9544 16.2144 69.8811 17.6173 69.8811 21.8985V26.1141C69.8811 26.9136 70.5003 27.5766 71.298 27.6311V27.6311C73.3257 27.752 75.5732 27.4376 76.7214 26.8571C80.1416 25.1397 80.6057 19.0927 77.4787 17.0126C77.039 16.6981 76.2572 16.3595 75.7687 16.2144C74.8892 15.9725 70.7361 15.8999 70.1987 16.1418ZM75.6221 17.6415C76.7703 18.1736 77.2833 18.7057 77.6742 19.8184C78.3093 21.6808 77.7719 24.148 76.4527 25.3332C75.5976 26.083 74.6937 26.3733 73.0325 26.3733V26.3733C72.2365 26.3733 71.5912 25.728 71.5912 24.9319V21.7776V18.721C71.5912 17.871 72.2802 17.1819 73.1302 17.1819V17.1819C74.083 17.1819 75.0113 17.3512 75.6221 17.6415Z" fill="#FFF9F1"/>
<path d="M169.139 17.1819C168.675 17.3754 168.577 17.5931 168.577 18.3913C168.577 19.2621 168.528 19.3588 167.966 19.3588C167.478 19.3588 167.355 19.4798 167.355 19.9635C167.355 20.4473 167.478 20.5682 167.966 20.5682V20.5682C168.304 20.5682 168.577 20.8417 168.577 21.179V23.108C168.577 25.8654 168.919 27.1232 169.75 27.5585C170.36 27.873 171.509 27.8972 171.948 27.6069C172.117 27.5027 172.19 27.2773 172.185 27.0602C172.175 26.5741 171.551 26.5763 171.086 26.4351C171.022 26.4158 170.959 26.3949 170.898 26.3733C170.287 26.1556 170.287 26.1073 170.287 23.3498V21.5454C170.287 21.0057 170.725 20.5682 171.264 20.5682V20.5682C172.144 20.5682 172.241 20.4957 172.241 19.9635C172.241 19.4314 172.144 19.3588 171.289 19.3588V19.3588C170.739 19.3588 170.284 18.9321 170.249 18.3837L170.238 18.222C170.165 17.0126 169.994 16.8433 169.139 17.1819Z" fill="#FFF9F1"/>
<path d="M82.951 19.4555C82.0471 19.8425 81.2409 20.7133 80.8989 21.6082C80.5324 22.5516 80.5569 24.535 80.9722 25.4783C82.2181 28.4534 86.8353 28.526 88.3499 25.5992C88.8874 24.5592 88.863 22.2371 88.2767 21.1245C87.4216 19.4555 84.8076 18.6331 82.951 19.4555ZM86.249 21.0035C87.5193 22.2613 87.5193 24.535 86.2734 25.8653C84.4656 27.7762 81.7784 25.696 82.2181 22.7693C82.5601 20.4956 84.7588 19.5523 86.249 21.0035Z" fill="#FFF9F1"/>
<path d="M105.548 19.2863C105.353 19.3589 104.889 19.6491 104.522 19.891C103.838 20.3506 103.838 20.3506 103.838 19.8668C103.838 19.4556 103.692 19.3589 103.105 19.3589V19.3589C102.701 19.3589 102.373 19.687 102.373 20.0918V23.4708V26.7277C102.373 27.2 102.755 27.5828 103.228 27.5828V27.5828V27.5828C103.7 27.5828 104.083 27.2 104.083 26.7277V24.7044C104.083 22.0437 104.131 21.7535 104.645 21.1972C104.938 20.8343 105.524 20.4957 105.964 20.4231C106.574 20.3022 106.868 20.399 107.356 20.8827C107.967 21.4874 107.991 21.6083 107.991 24.5593V26.7277C107.991 27.2 108.374 27.5828 108.846 27.5828V27.5828V27.5828C109.319 27.5828 109.701 27.1999 109.701 26.7277V24.6802C109.701 21.5842 109.457 20.5683 108.529 19.7459C107.991 19.2863 106.208 19.0202 105.548 19.2863Z" fill="#FFF9F1"/>
<path d="M117.275 19.383C115.638 20.0603 114.832 21.439 114.832 23.5433C114.832 25.2123 115.32 26.2524 116.566 27.1473C118.105 28.2842 120.866 27.8004 122.112 26.204C122.649 25.4784 122.771 25.043 122.845 23.6159C122.918 22.1404 122.869 21.7776 122.356 21.0762C121.477 19.7942 120.621 19.2863 119.18 19.1895C118.472 19.1653 117.617 19.2379 117.275 19.383ZM120.304 20.8585C120.646 21.1729 121.061 21.9228 121.232 22.5275C121.99 25.43 119.205 27.8246 117.275 25.938C115.418 24.0997 116.468 20.3264 118.838 20.3264C119.376 20.3264 119.913 20.5199 120.304 20.8585Z" fill="#FFF9F1"/>
<path d="M125.532 19.3588C124.481 19.6732 124.335 19.8183 124.604 20.3263C124.823 20.7133 124.97 20.7617 125.483 20.5682C127.12 19.9393 128.757 20.5198 128.757 21.705C128.757 22.1162 128.537 22.2371 127.511 22.3581C125.141 22.6725 123.871 23.7368 123.871 25.4057C123.871 26.4216 124.237 27.0263 125.141 27.4859C126.118 27.9939 127.633 27.8004 128.39 27.0989L128.56 26.9382C128.729 26.7786 129.007 26.8524 129.074 27.0747V27.0747C129.147 27.4375 129.392 27.5827 129.832 27.5827V27.5827C130.182 27.5827 130.467 27.2983 130.467 26.9475V24.6801C130.467 21.2212 130.125 20.0844 128.879 19.5039C128.024 19.0927 126.607 19.0201 125.532 19.3588ZM128.928 24.4866C128.683 26.3733 126.582 27.365 125.678 26.0104C124.823 24.7285 125.947 23.4949 127.999 23.4707H128.048C128.589 23.4707 129.005 23.9507 128.928 24.4866V24.4866Z" fill="#FFF9F1"/>
<path d="M147.69 19.4556C146.102 20.157 145.369 21.4874 145.369 23.6885C145.369 25.9621 146.712 27.486 148.911 27.7278C149.888 27.8246 150.352 27.752 151.207 27.2925C152.795 26.4701 153.284 25.6961 153.382 23.7126C153.479 22.3339 153.382 21.8985 152.918 21.0762C151.965 19.383 149.546 18.6332 147.69 19.4556ZM150.988 21.0036C152.893 22.8903 151.672 26.6152 149.155 26.6152C148.3 26.6152 147.152 25.4058 146.932 24.2932C146.37 21.2938 149.058 19.1169 150.988 21.0036Z" fill="#FFF9F1"/>
<path d="M157.95 19.3589C157.657 19.4556 157.29 19.7217 157.119 19.9394C156.68 20.4715 156.362 20.4231 156.362 19.8426C156.362 19.4798 156.191 19.3589 155.751 19.3589V19.3589C155.414 19.3589 155.141 19.6323 155.141 19.9696V23.4708V26.8499C155.141 27.2546 155.469 27.5828 155.874 27.5828V27.5828V27.5828C156.278 27.5828 156.606 27.2546 156.606 26.8499V24.6802C156.606 21.9228 156.631 21.7293 157.193 21.173C158.488 19.891 160.027 20.2538 160.491 21.947C160.637 22.4549 160.759 23.9304 160.759 25.2123V26.8499C160.759 27.2546 161.088 27.5828 161.492 27.5828V27.5828V27.5828C161.897 27.5828 162.225 27.2546 162.225 26.8499V24.6802C162.225 21.173 161.859 19.9636 160.613 19.4556C159.709 19.0928 158.707 19.0444 157.95 19.3589Z" fill="#FFF9F1"/>
<path d="M184.334 19.5522C183.21 20.2779 182.697 20.931 182.38 22.2129C181.793 24.414 182.575 26.4942 184.285 27.3166C185.433 27.8729 186.777 27.9696 188.194 27.5584C189.098 27.3166 189.22 27.1714 188.976 26.5426C188.854 26.2765 188.634 26.2523 187.779 26.4458C187.192 26.5667 186.337 26.6151 185.849 26.5184C184.823 26.3249 183.723 25.188 183.723 24.2931V24.2931C183.723 23.9725 183.983 23.7126 184.304 23.7126H186.655H188.74C189.207 23.7126 189.586 23.3335 189.586 22.866V22.866C189.586 21.7533 189.073 20.5923 188.267 19.8667C187.388 19.0685 185.36 18.8992 184.334 19.5522ZM187.021 20.4714C187.412 20.6165 188.121 21.7775 188.121 22.2613C188.121 22.4064 187.29 22.5032 185.898 22.5032C183.723 22.5032 183.699 22.5032 183.845 21.9468C184.212 20.7374 185.751 20.0118 187.021 20.4714Z" fill="#FFF9F1"/>
<path d="M89.3271 19.891C89.6935 21.0278 91.6235 27.4618 91.6235 27.5344C91.6235 27.5828 91.9655 27.5828 92.4052 27.5344C93.1625 27.4618 93.187 27.4134 94.213 24.4383C94.7749 22.7694 95.2879 21.5842 95.3612 21.7777C95.4345 21.9712 95.8987 23.3741 96.3873 24.8495C97.2423 27.486 97.3156 27.5828 97.9752 27.5828C98.6592 27.5828 98.7081 27.5102 99.9296 23.7611C100.614 21.6809 101.224 19.8184 101.273 19.6491C101.346 19.4556 101.102 19.3589 100.565 19.3589V19.3589C100.089 19.3589 99.6733 19.6785 99.5509 20.1378L98.9524 22.3824C98.4882 24.0513 98.0485 25.4059 97.9508 25.4059C97.8775 25.4059 97.682 24.9463 97.511 24.3658C95.9964 19.2863 96.0452 19.3589 95.2879 19.3589C94.5795 19.3589 94.555 19.4314 93.5778 22.5033C93.0404 24.2206 92.5518 25.6477 92.5029 25.6477C92.4541 25.6477 92.0632 24.2206 91.6235 22.5033L90.9988 20.1383C90.8774 19.6789 90.4618 19.3589 89.9867 19.3589V19.3589C89.2294 19.3589 89.1561 19.4072 89.3271 19.891Z" fill="#FFF9F1"/>
<path d="M43.9856 21.8502C43.3749 22.0196 41.6159 22.6001 40.0524 23.108V23.108C38.2131 23.7046 36.2298 23.6876 34.4009 23.0597L34.1893 22.9871C30.3294 21.6809 28.0086 21.4632 25.4924 22.2131C21.1194 23.5434 17.7726 27.22 16.4534 32.1785C15.8671 34.3554 15.8671 39.5558 16.4534 42.3374C17.6993 48.1425 20.6797 53.9476 24.3686 57.7451C27.1536 60.6235 28.9125 60.9379 33.261 59.4383C37.4629 58.0112 38.7577 58.0354 43.1794 59.6076C45.3292 60.3816 47.5279 60.43 48.9937 59.7769C50.2885 59.1964 51.9253 57.6 53.7575 55.1086C55.2966 53.0527 57.5441 48.844 57.8128 47.5136C57.935 46.8364 57.8617 46.7396 56.4936 45.893C52.6582 43.5468 50.6061 39.1446 51.2901 34.694C51.7298 31.6705 53.22 29.3243 55.9317 27.2925V27.2925C56.3837 26.9503 56.4574 26.2996 56.0934 25.8649L55.9317 25.6719C54.8324 24.2932 52.5849 22.8661 50.6061 22.2373C48.5784 21.6084 45.4758 21.4149 43.9856 21.8502Z" fill="#FFF9F1"/>
<path d="M130.76 34.0651C128.537 34.8633 127.291 36.4597 127.291 38.564C127.291 41.007 128.244 42.1197 131.81 43.8128C133.154 44.4417 134.424 45.119 134.644 45.2883C135.621 46.0865 135.89 47.828 135.23 49.0858C134.449 50.6096 131.346 51.0934 128.781 50.0775C128.633 50.0218 128.488 49.9693 128.351 49.9212C127.738 49.7064 127.297 49.9525 127.071 50.5613V50.5613C126.753 51.5288 126.998 51.8432 128.512 52.2544C133.716 53.7541 138.186 51.4562 138.138 47.2959C138.113 44.7078 137.185 43.6677 133.252 41.8536C130.491 40.5716 129.734 39.846 129.734 38.4431C129.734 37.1611 130.638 36.1694 132.152 35.8066C133.154 35.5889 133.618 35.5889 134.986 35.9276C136.77 36.3871 136.965 36.3146 137.209 35.1777C137.331 34.4763 137.283 34.4037 136.525 34.1377C135.035 33.5813 132.201 33.5571 130.76 34.0651Z" fill="#FFF9F1"/>
<path d="M78.1627 34.5004C77.6497 35.8549 72.0797 52.1818 72.0797 52.3511C72.0797 52.4478 72.6416 52.4962 73.3501 52.4478V52.4478C74.1036 52.404 74.7558 51.9087 75.0002 51.1945L75.5732 49.5211V49.5211C76.1397 47.824 77.7454 46.6936 79.5342 46.7326L79.8484 46.7395L80.1532 46.7462C81.9521 46.7858 83.5363 47.9412 84.1236 49.642V49.642L84.705 51.3839C84.9268 52.0482 85.5486 52.4962 86.249 52.4962V52.4962C86.9086 52.4962 87.4949 52.4237 87.5437 52.3027C87.5926 52.206 86.7375 49.5211 85.6138 46.3283C84.5144 43.1355 83.0731 39.0235 82.4379 37.1853L81.7771 35.2365C81.5003 34.4205 80.7345 33.8715 79.8728 33.8715V33.8715C78.5292 33.8715 78.407 33.9199 78.1627 34.5004ZM81.2653 40.9344L81.6978 42.2109C82.1211 43.4603 81.192 44.7561 79.8728 44.7561V44.7561C78.0406 44.7561 77.21 44.6593 77.21 44.49C77.21 43.8611 79.7751 36.508 79.8728 36.7983C79.9217 36.9918 80.5568 38.8542 81.2653 40.9344Z" fill="#FFF9F1"/>
<path d="M142.877 35.6373V35.6373C142.339 35.7813 141.956 36.2573 141.93 36.8139L141.9 37.4756L141.875 38.0201C141.847 38.6196 141.375 39.1032 140.776 39.1445V39.1445C139.726 39.2171 139.726 39.2171 139.799 40.112C139.872 40.9828 139.897 41.007 140.923 41.0796V41.0796C141.501 41.1204 141.949 41.6013 141.949 42.1807V45.6269C141.949 50.5129 142.12 51.3594 143.268 52.0851C144.147 52.6656 145.149 52.8349 146.468 52.6414C147.567 52.4721 147.567 52.4479 147.567 51.5046V51.5046C147.567 50.9836 147.145 50.5612 146.624 50.5612H146.346C145.344 50.5612 145.076 50.4645 144.782 50.0049C144.367 49.3518 144.05 44.6594 144.269 42.4583V42.4583C144.367 41.5637 145.122 40.8861 146.022 40.8861H146.126H146.965C147.433 40.8861 147.812 40.507 147.812 40.0395V40.0395V40.0395C147.812 39.5799 147.449 39.2021 146.99 39.1832L146.053 39.1445V39.1445C145.046 39.1036 144.239 38.2956 144.2 37.2885L144.196 37.1853C144.183 36.9153 144.167 36.659 144.148 36.4282C144.087 35.6911 143.586 35.4267 142.877 35.6373V35.6373Z" fill="#FFF9F1"/>
<path d="M94.6039 39.459C94.042 39.7493 93.358 40.233 93.1137 40.5475C92.5762 41.2247 92.3564 41.0796 92.3564 39.9911C92.3564 39.1929 92.3319 39.1929 91.257 39.1929V39.1929C90.6499 39.1929 90.1577 39.6851 90.1577 40.2923V48.5053V56.474C90.1577 57.2161 90.7592 57.8176 91.5013 57.8176V57.8176V57.8176C92.2434 57.8176 92.8449 57.2161 92.8449 56.474V54.4071V52.0286C92.8449 51.6134 93.319 51.3764 93.6511 51.6255V51.6255C96.0452 53.4396 99.6364 52.8833 101.566 50.3677C102.592 49.0374 102.959 47.7555 102.934 45.4818C102.934 42.6518 101.762 40.4991 99.6364 39.4106C98.3661 38.7575 95.9964 38.7817 94.6039 39.459ZM98.4882 41.4424C100.394 42.676 101.078 46.3284 99.8563 48.6504C99.2455 49.7872 97.682 50.8031 96.5094 50.8031C95.4834 50.7789 93.871 49.9082 93.358 49.0858C92.3319 47.441 92.4541 43.9096 93.5534 42.3615C94.6283 40.8861 96.9736 40.4507 98.4882 41.4424Z" fill="#FFF9F1"/>
<path d="M110.679 39.3139C110.214 39.5316 109.457 40.0395 109.042 40.4507L108.968 40.5211C108.693 40.7853 108.236 40.5903 108.236 40.2088V40.2088V40.2088C108.236 39.6478 107.781 39.1929 107.22 39.1929H107.136V39.1929C106.529 39.1929 106.037 39.6851 106.037 40.2923V48.5053V56.5961C106.037 57.2707 106.584 57.8176 107.258 57.8176V57.8176V57.8176C107.933 57.8176 108.48 57.2708 108.48 56.5961V54.2862V51.8577C108.48 51.4274 108.987 51.1973 109.311 51.4804V51.4804C110.947 52.8833 113.219 53.0768 115.491 51.9883C119.522 50.0533 119.889 42.4341 116.102 39.7976C115.198 39.1929 114.783 39.072 113.293 39.0236C112.096 38.9752 111.265 39.072 110.679 39.3139ZM114.099 41.3215C116.639 42.676 117.006 47.8038 114.71 49.7872C113.122 51.1901 110.874 51.045 109.482 49.4728C108.602 48.4569 108.382 47.4652 108.529 45.119C108.627 43.8128 108.798 43.1839 109.213 42.5792C110.385 40.9345 112.389 40.4265 114.099 41.3215Z" fill="#FFF9F1"/>
<path d="M153.064 39.5315C150.597 40.6925 149.4 42.7485 149.4 45.8445C149.424 49.255 151.012 51.5771 153.895 52.4237C156.118 53.0525 158.805 52.4479 160.466 50.9482C162.86 48.8197 163.105 43.5951 160.979 41.0312C159.245 38.9994 155.678 38.2979 153.064 39.5315ZM157.584 41.1763C160.466 42.6276 160.759 48.1908 158.048 50.1016C156.9 50.8998 154.872 50.924 153.748 50.1258C150.914 48.1424 151.403 42.3615 154.53 40.9828C155.58 40.5232 156.362 40.5716 157.584 41.1763Z" fill="#FFF9F1"/>
<path d="M169.53 39.5074C169.09 39.7976 168.455 40.4265 168.162 40.8619V40.8619C167.991 41.1119 167.6 40.991 167.6 40.6883V40.4265V40.2923C167.6 39.6851 167.108 39.193 166.5 39.193V39.193V39.193C165.895 39.193 165.405 39.6865 165.409 40.2923L165.45 45.7721L165.51 51.154C165.517 51.8307 166.068 52.3754 166.745 52.3754V52.3754V52.3754C167.408 52.3754 167.948 51.8417 167.956 51.1784L167.991 48.215C168.039 44.7078 168.113 43.9096 168.479 43.1598C169.066 41.9987 169.945 41.3699 171.215 41.2005V41.2005C171.804 41.1173 172.241 40.6097 172.241 40.0153V40.0153V39.9038C172.241 39.3776 171.815 38.9511 171.289 38.9511V38.9511C170.727 38.9511 170.043 39.1688 169.53 39.5074Z" fill="#FFF9F1"/>
<path d="M177.005 39.4107C175.808 39.9428 174.562 41.2973 173.903 42.797C173.292 44.1515 173.194 46.8122 173.683 48.4569C174.122 49.9808 175.613 51.6256 177.078 52.1819C178.471 52.714 181.622 52.7624 183.284 52.2786C184.359 51.9884 184.432 51.8916 184.31 51.3111C184.041 50.0775 184.065 50.1017 182.844 50.4645C180.547 51.1418 177.958 50.6822 176.81 49.4003C176.321 48.8681 175.686 47.3201 175.662 46.6187C175.662 46.2317 176.052 46.2075 180.45 46.2075H183.613C184.504 46.2075 185.206 45.4507 185.14 44.5627V44.5627C185.018 42.8695 184.212 40.9103 183.308 40.1121C181.989 38.9269 178.837 38.5641 177.005 39.4107ZM181.158 41.128C182.038 41.6601 182.746 42.8937 182.746 43.8854V43.8854C182.746 44.2439 182.452 44.5323 182.093 44.5248L179.277 44.4659C175.368 44.3934 175.417 44.4176 176.37 42.5793C177.298 40.7894 179.497 40.1121 181.158 41.128Z" fill="#FFF9F1"/>
<defs>
<linearGradient id="paint0_linear_0_1" x1="102.5" y1="3" x2="102" y2="80" gradientUnits="userSpaceOnUse">
<stop stop-color="#2A2619"/>
<stop offset="1" stop-color="#706C61"/>
</linearGradient>
</defs>
</svg>
