<svg width="60" height="60" viewBox="0 0 60 60" fill="none" xmlns="http://www.w3.org/2000/svg">
<path d="M28.2631 0.251172L27.953 0.485619V3.24036C27.953 5.831 27.9649 5.99511 28.1915 6.21784C28.5136 6.53434 29.1576 6.52262 29.4558 6.20611C29.6228 6.01856 29.6944 5.71378 29.7421 4.90493L29.8017 3.84993L30.6247 5.02216C31.5312 6.33506 31.8771 6.58123 32.4735 6.34678C32.6524 6.26472 32.8671 6.06544 32.9506 5.91305C33.1295 5.52622 33.1295 1.1069 32.9506 0.602842C32.724 -0.0301633 32.0083 -0.205998 31.5551 0.274617C31.3284 0.509063 31.2927 0.684898 31.2927 1.63441C31.2927 2.23224 31.2449 2.68942 31.1853 2.65425C31.1257 2.61908 30.744 2.1033 30.3265 1.50546C29.921 0.919345 29.4797 0.333229 29.3604 0.216005C29.0742 -0.0653305 28.6567 -0.0536079 28.2631 0.251172Z" fill="#2A2619"/>
<path d="M29.6944 7.87068C29.5274 8.06996 29.3843 8.30441 29.3843 8.39818C29.3843 8.65607 28.2989 17.8815 28.2631 17.9167C28.2392 17.9284 27.8098 18.0457 27.285 18.1863C26.1758 18.4677 24.3509 19.2882 23.504 19.8861C22.9315 20.2846 22.8719 20.3081 22.526 20.1674C21.9058 19.9212 21.5479 19.8978 21.1066 20.1088C20.379 20.4487 20.0928 21.3982 20.4864 22.1367C20.6414 22.4415 20.6295 22.5001 20.1763 23.1566C19.4845 24.1647 18.8046 25.63 18.4945 26.7905C18.2917 27.5876 18.1844 27.8104 17.9936 27.8455C17.8624 27.869 15.6081 28.1269 12.984 28.4199L8.21305 28.9474L7.89101 29.3108C7.68824 29.5218 7.55704 29.8031 7.55704 30.0024C7.55704 30.3893 7.92679 30.905 8.30847 31.0223C8.4516 31.0692 10.7417 31.3505 13.3896 31.6436L18.2083 32.1828L18.4826 33.1792C18.8046 34.3749 19.3891 35.6409 20.1166 36.7545C20.6295 37.5282 20.6534 37.575 20.4864 37.8916C20.2001 38.4425 20.2717 39.0989 20.6772 39.5561C21.1424 40.0719 21.5956 40.1774 22.3232 39.9195L22.8838 39.7202L23.5398 40.154C24.4702 40.7752 25.9253 41.4317 27.1658 41.7951C27.7621 41.9592 28.2512 42.1116 28.2631 42.1233C28.2989 42.1585 29.3843 51.3605 29.3843 51.6184C29.3843 51.7239 29.5274 51.9583 29.6944 52.1576C29.9329 52.4507 30.0999 52.521 30.4577 52.521C30.9945 52.521 31.4835 52.1811 31.5789 51.7239C31.6147 51.5481 31.889 49.3325 32.1872 46.7888C32.4854 44.2451 32.7359 42.1468 32.7597 42.1233C32.7836 42.1116 33.2726 41.9592 33.869 41.7951C35.1452 41.4317 36.3857 40.869 37.3876 40.2126L38.1152 39.7202L38.7473 39.9195C39.284 40.1071 39.4272 40.1188 39.7492 39.9781C40.6199 39.6265 40.9777 38.6418 40.5245 37.8798C40.3337 37.5633 40.3456 37.5399 40.7631 36.9655C41.5503 35.887 42.2659 34.2694 42.7072 32.5931L42.8026 32.1945L47.6452 31.6436C50.3169 31.3388 52.607 31.0574 52.7382 31.0105C53.108 30.905 53.4777 30.3893 53.4777 30.0024C53.4777 29.8031 53.3465 29.5218 53.1557 29.3108L52.8217 28.9591L48.0507 28.4199C45.4267 28.1269 43.1724 27.869 43.0412 27.8455C42.8623 27.8104 42.7549 27.6111 42.5999 27.0484C42.2421 25.7238 41.6815 24.4578 41.0016 23.4379C40.3575 22.4767 40.3456 22.4415 40.5245 22.1367C40.9539 21.4334 40.6438 20.4487 39.9043 20.0971C39.4749 19.8978 39.1171 19.9212 38.5088 20.1674C38.1629 20.3081 38.1032 20.2846 37.5307 19.8861C36.6719 19.2882 34.8232 18.4442 33.7259 18.1746C33.2249 18.0457 32.7836 17.9284 32.7717 17.905C32.7478 17.8815 32.4854 15.7832 32.1872 13.2395C31.889 10.6958 31.6266 8.49196 31.5789 8.32785C31.4596 7.81207 31.066 7.50729 30.5054 7.50729C30.088 7.50729 29.9449 7.5659 29.6944 7.87068ZM31.2927 20.9762L32.0202 27.236L31.2688 27.9862L30.5174 28.7247L29.754 27.9745L28.9907 27.2242L29.1934 25.6066C29.3008 24.7039 29.3843 23.8717 29.3843 23.731C29.3843 23.3441 28.9549 22.9808 28.4897 22.9808C27.8218 22.9808 27.6667 23.309 27.4401 25.1611C27.3327 26.0403 27.2254 26.7788 27.2135 26.7905C27.1658 26.8374 20.6772 27.5525 20.3552 27.5525C20.1047 27.5525 20.1047 27.5407 20.2717 26.9898C20.4864 26.3099 21.381 24.4226 21.5837 24.2585C21.6911 24.1764 21.8461 24.3523 22.1682 24.9267C22.4067 25.3487 22.7168 25.8058 22.8361 25.9231C23.1343 26.2161 23.7187 26.2044 24.0169 25.9113C24.4344 25.5011 24.327 25.0322 23.4802 23.6489C23.0627 22.9573 22.7407 22.3946 22.7765 22.3946C22.8122 22.3946 23.4325 22.7346 24.1481 23.1566C24.8638 23.5786 25.5556 23.9185 25.6987 23.9185C26.3428 23.9185 26.7602 23.309 26.5098 22.7229C26.4263 22.5119 26.0804 22.2305 25.4959 21.9023C25.0069 21.621 24.6371 21.3514 24.6491 21.2927C24.7087 21.0935 26.0684 20.4136 26.9988 20.1088C28.0961 19.7454 28.0722 19.7454 28.0722 20.0971C28.0722 20.4605 28.4062 20.8356 28.7998 20.9293C29.0264 20.988 29.2054 20.9293 29.4558 20.7183C29.7779 20.437 29.7898 20.3784 30.1238 17.694C30.3027 16.1818 30.4577 14.8455 30.4577 14.7165C30.4935 14.2007 30.6009 14.9627 31.2927 20.9762ZM34.0598 20.1205C34.9663 20.437 36.4215 21.1755 36.4215 21.3162C36.4215 21.3631 36.0159 21.6327 35.515 21.914C34.6562 22.3946 34.3938 22.6994 34.3938 23.1683C34.3938 23.4379 34.9425 23.9185 35.2526 23.9185C35.4076 23.9185 36.1233 23.5786 36.8389 23.1683C37.5665 22.758 38.1629 22.4415 38.1867 22.4532C38.2106 22.4767 37.8766 23.098 37.4353 23.8365C36.8031 24.9149 36.66 25.2314 36.7316 25.4893C36.8747 26.052 37.65 26.3451 38.1032 25.9934C38.1987 25.9113 38.5207 25.4659 38.807 24.9853C39.284 24.1882 39.3437 24.1413 39.4987 24.3405C40.0236 25.0439 40.9777 27.3415 40.7988 27.5056C40.7631 27.5525 39.1648 27.4118 37.2564 27.1891L33.7974 26.8022L33.7378 26.4506C33.6781 26.1106 32.9625 20.015 32.9625 19.8743C32.9625 19.7688 33.1772 19.8157 34.0598 20.1205ZM28.4301 29.2522L29.1934 30.0141L28.4539 30.7527L27.7025 31.4912L26.963 31.4091C26.5575 31.3505 23.7784 31.0457 20.7965 30.7175C17.8146 30.3893 15.2741 30.0845 15.1548 30.0376C15.0236 29.979 15.7751 29.8618 16.9439 29.7328C18.6853 29.5453 27.4282 28.5371 27.5952 28.502C27.6309 28.4902 28.0126 28.8302 28.4301 29.2522ZM39.8566 29.2639C43.2082 29.639 45.9634 29.979 45.9634 30.0141C45.9634 30.0493 43.1366 30.3893 39.6657 30.7878L33.38 31.5029L32.5689 30.7292L31.7578 29.9555L32.5331 29.217C33.0698 28.713 33.38 28.4902 33.5231 28.5254C33.6424 28.5606 36.493 28.8888 39.8566 29.2639ZM31.2688 32.0421L32.0202 32.7923L31.3046 38.9466C30.8991 42.3343 30.577 45.2063 30.577 45.3235C30.577 46.0737 30.3862 44.6905 29.7302 39.0638L28.9907 32.6986L29.6944 31.9952C30.0761 31.6201 30.422 31.3036 30.4577 31.3036C30.4935 31.3036 30.8633 31.6436 31.2688 32.0421ZM23.9811 32.8392C25.7345 33.0385 27.1896 33.2143 27.2135 33.2378C27.285 33.2964 28.0722 40.1422 28.0126 40.1891C27.8576 40.3532 24.7445 39.0169 24.6491 38.7473C24.6252 38.6769 25.0069 38.3956 25.4959 38.1143C26.474 37.5516 26.7364 37.1882 26.5336 36.6607C26.4024 36.3208 26.0684 36.1098 25.6868 36.1098C25.5436 36.1098 24.8399 36.4497 24.1243 36.8717C23.3967 37.2937 22.7884 37.6337 22.7645 37.6337C22.7407 37.6337 23.0627 37.0593 23.4802 36.3559C24.3509 34.9141 24.4582 34.3866 23.9931 34.0701C23.6352 33.8239 23.1104 33.8356 22.848 34.0935C22.7407 34.199 22.4306 34.6562 22.1682 35.0899C21.7388 35.8167 21.6791 35.8636 21.536 35.676C21.0947 35.1016 20.2001 33.062 20.2001 32.6282C20.2001 32.4172 20.3194 32.4289 23.9811 32.8392ZM40.8346 32.6517C40.8346 33.0502 39.9162 35.1368 39.4868 35.6878C39.3318 35.887 39.284 35.8401 38.7712 34.9727C38.473 34.4569 38.139 33.9997 38.0317 33.9529C37.4591 33.7418 36.8508 34.0349 36.7196 34.5859C36.6719 34.8086 36.8389 35.1837 37.4234 36.1684C37.8528 36.8717 38.2106 37.493 38.2106 37.5399C38.2106 37.5868 37.6261 37.282 36.9105 36.8717C36.1948 36.4497 35.4673 36.1098 35.2884 36.1098C34.9544 36.1098 34.3938 36.5787 34.3938 36.86C34.3938 37.3406 34.6562 37.6337 35.515 38.1143C36.0159 38.3956 36.4215 38.6535 36.4215 38.6887C36.4215 38.8059 35.181 39.4741 34.3938 39.7671C33.4635 40.1188 32.9625 40.2477 32.9625 40.1305C32.9744 39.7906 33.7736 33.2847 33.8094 33.2495C33.8809 33.1909 39.7134 32.511 40.3337 32.4876C40.7034 32.4758 40.8346 32.5227 40.8346 32.6517Z" fill="#2A2619"/>
<path d="M24.9711 9.6173C17.6119 11.5632 11.8867 17.143 9.82326 24.364C9.37001 25.9348 9.35809 26.4037 9.77555 26.7202C10.4912 27.2711 11.0399 26.8491 11.3738 25.501C12.7455 19.8157 16.777 14.9627 22.1682 12.4893C23.349 11.95 25.1381 11.3405 26.1639 11.1295C26.9749 10.9654 27.3566 10.6489 27.3566 10.1331C27.3566 9.69935 26.9034 9.2539 26.474 9.27735C26.3428 9.27735 25.6629 9.42974 24.9711 9.6173Z" fill="#2A2619"/>
<path d="M33.9883 9.51178C33.7616 9.68762 33.6781 9.86345 33.6781 10.1448C33.6781 10.6488 34.024 10.9771 34.6801 11.0943C36.1352 11.3287 38.7235 12.3134 40.3814 13.2629C42.5879 14.5172 45.1285 16.8031 46.6671 18.9365C47.9911 20.7769 49.1361 23.3793 49.7802 25.9934C49.9949 26.8491 50.6151 27.189 51.1876 26.767C51.629 26.4505 51.6409 26.0285 51.2592 24.5984C49.3031 17.2837 43.3036 11.4225 35.8609 9.5704C34.4057 9.207 34.3819 9.207 33.9883 9.51178Z" fill="#2A2619"/>
<path d="M24.7087 13.3685C20.6653 14.7165 16.9439 17.7878 14.8447 21.5038C14.1052 22.8049 13.2584 24.9853 13.2345 25.5948C13.2226 26.1224 13.5804 26.4975 14.1052 26.4975C14.5823 26.4975 14.8686 26.0989 15.2502 24.9736C15.9897 22.7346 17.2898 20.6832 19.1267 18.8662C20.9873 17.0258 23.0627 15.7598 25.5317 14.9627C26.641 14.5993 27.0584 14.2359 26.9391 13.7201C26.8437 13.3333 26.4501 13.0168 26.0565 13.0168C25.8895 13.0168 25.2812 13.1809 24.7087 13.3685Z" fill="#2A2619"/>
<path d="M34.3342 13.3098C34.0002 13.6263 33.9644 13.8373 34.1672 14.2241C34.358 14.5641 34.4176 14.611 35.5269 14.9627C38.0913 15.8067 40.0116 17.0023 42.0154 18.9834C43.4825 20.437 43.8045 20.5894 44.3174 20.0736C44.9019 19.4992 44.5918 18.9248 42.743 17.2016C40.9539 15.5253 38.2344 13.9311 36.0159 13.2629C34.9663 12.9464 34.692 12.9581 34.3342 13.3098Z" fill="#2A2619"/>
<path d="M45.1285 22.043C44.8422 22.3243 44.8184 22.7463 45.0927 23.2504C45.2001 23.4614 45.5102 24.235 45.7726 24.9735C46.202 26.1341 46.3093 26.3333 46.5956 26.4271C47.025 26.5795 47.5378 26.3919 47.7167 26.0168C47.836 25.7824 47.8241 25.6066 47.7048 25.1377C47.4543 24.2116 46.6671 22.3595 46.4047 22.0664C46.0946 21.7382 45.4625 21.7147 45.1285 22.043Z" fill="#2A2619"/>
<path d="M56.877 26.6498C56.6743 26.7436 56.4476 26.9546 56.3641 27.1305C56.1733 27.5525 56.1614 32.4524 56.3522 32.8627C56.5788 33.3433 56.9844 33.4722 58.2725 33.4722C59.4414 33.4722 59.4653 33.4605 59.7635 33.1323C59.9782 32.8744 60.0378 32.722 59.9782 32.4876C59.835 31.9132 59.5846 31.7725 58.7616 31.7725H58.0101V31.3036V30.8347H58.5946C59.0955 30.8347 59.2267 30.7878 59.4295 30.5299C59.7515 30.1314 59.7396 29.8618 59.4056 29.4866C59.2029 29.2522 58.9882 29.1584 58.5707 29.1115C58.0221 29.0529 58.0101 29.0295 58.0101 28.6544V28.2558H58.7616C59.5846 28.2558 59.835 28.1151 59.9782 27.5407C60.0378 27.3063 59.9782 27.1539 59.7635 26.896C59.4772 26.5678 59.4176 26.5561 58.3441 26.5209C57.6046 26.5092 57.1156 26.5443 56.877 26.6498Z" fill="#2A2619"/>
<path d="M0.257444 27.0484C0.162024 27.1656 0.0427496 27.3532 0.00696727 27.4587C-0.0407425 27.5759 0.162024 28.8185 0.448283 30.2134C0.92538 32.511 1.00887 32.7923 1.29513 33.0268C2.03463 33.6598 2.65486 33.2261 3.13196 31.7139L3.46593 30.6589L3.78797 31.7139C4.12194 32.8041 4.47976 33.2964 4.94493 33.2964C5.29083 33.2964 5.86334 32.9799 5.93491 32.7455C6.06611 32.3352 6.96067 27.8573 6.96067 27.6111C6.96067 27.2477 6.47164 26.8491 6.04225 26.8491C5.52937 26.8491 5.2789 27.1891 5.05228 28.2324L4.84951 29.135L4.52747 28.1151C4.1935 27.0367 4.02652 26.8491 3.40629 26.8491C2.92919 26.8491 2.69064 27.1539 2.3686 28.162C2.08234 29.0764 2.04656 29.0647 1.83187 27.9862C1.74837 27.5994 1.59332 27.2008 1.46212 27.0719C1.17586 26.7905 0.495992 26.7788 0.257444 27.0484Z" fill="#2A2619"/>
<path d="M9.77554 33.3081C9.38194 33.6129 9.37001 33.9763 9.76362 35.465C10.682 38.9114 12.7335 42.3812 15.4292 45.007C17.0394 46.5895 17.3853 46.7536 17.9816 46.2964C18.2082 46.1206 18.2917 45.9448 18.2917 45.6517C18.2917 45.3 18.1486 45.1242 17.0274 44.0575C15.7393 42.8266 14.63 41.5255 13.8428 40.2946C12.817 38.7121 11.7555 36.2504 11.3857 34.5858C11.1591 33.6129 11.0279 33.3433 10.7059 33.1909C10.2884 33.0033 10.1334 33.0268 9.77554 33.3081Z" fill="#2A2619"/>
<path d="M50.1499 33.2846C50.0187 33.4136 49.8518 33.7418 49.7802 34.0231C48.6471 38.3956 47.0488 41.1855 44.0431 44.0106C41.5503 46.355 38.7473 47.8907 35.3003 48.7816C34.4892 48.9808 33.9167 49.2036 33.8213 49.3208C33.5708 49.6607 33.6901 50.2937 34.0479 50.5516C34.3342 50.7626 34.4296 50.7744 35.0617 50.6454C37.1967 50.2234 40.2025 48.9926 42.0989 47.7734C46.8103 44.7608 50.0068 40.3415 51.3904 34.9844C51.6528 33.9294 51.6289 33.5894 51.2592 33.3081C50.8656 33.0033 50.4481 32.9916 50.1499 33.2846Z" fill="#2A2619"/>
<path d="M13.4611 33.8239C13.1033 34.1638 13.1033 34.2342 13.4134 35.2306C15.0713 40.5291 19.556 45.007 24.8995 46.7067C25.9372 47.0467 26.1877 47.0701 26.5336 46.8826C27.0584 46.6129 27.0584 45.6283 26.5455 45.429C26.4263 45.3821 25.8895 45.1945 25.3289 44.9953C20.4745 43.2955 16.932 39.8023 15.2502 35.043C15.0236 34.3748 14.7374 33.7536 14.63 33.6715C14.308 33.437 13.7712 33.5074 13.4611 33.8239Z" fill="#2A2619"/>
<path d="M46.4047 33.6715C46.2974 33.7536 46.0469 34.2928 45.8441 34.8789C44.3771 39.0521 41.5622 42.2406 37.7216 44.1396C36.994 44.4912 35.9563 44.925 35.3957 45.0891C34.4773 45.3704 34.358 45.4407 34.1791 45.8041C34.0002 46.1675 34.0002 46.2379 34.1672 46.5192C34.4654 47.0584 34.859 47.1053 36.0398 46.7302C41.3833 45.0422 45.6652 40.8573 47.4663 35.5823C47.7883 34.6328 47.848 34.3045 47.7645 34.0818C47.5617 33.5778 46.8341 33.355 46.4047 33.6715Z" fill="#2A2619"/>
<path d="M19.9735 47.199C19.6992 47.5507 19.6634 47.8438 19.8542 48.2072C20.1286 48.7112 23.9692 50.2468 25.973 50.6454C26.6052 50.7744 26.7006 50.7626 26.9869 50.5516C27.3447 50.2937 27.4639 49.6607 27.2135 49.3208C27.1181 49.2036 26.5455 48.9808 25.7464 48.7816C24.2316 48.383 23.3013 48.0548 21.8342 47.3749C20.5937 46.8122 20.3075 46.7888 19.9735 47.199Z" fill="#2A2619"/>
<path d="M29.4439 53.7636C28.6686 54.1504 28.3108 54.6896 28.3108 55.4399C28.3108 56.4245 28.7521 56.9169 30.0522 57.3975C30.9706 57.7374 31.233 57.9719 30.9229 58.1594C30.6128 58.347 30.1595 58.2649 29.6228 57.9133C28.8595 57.4092 28.442 57.4561 28.12 58.0539C27.8695 58.5346 28.0722 58.9917 28.7402 59.4489C30.3385 60.5274 32.4735 59.953 32.8432 58.3353C33.0818 57.3037 32.4615 56.4714 31.0422 55.9088C30.5293 55.6978 30.0999 55.475 30.0999 55.4281C30.0999 55.2523 30.8275 55.3344 31.2927 55.5688C31.901 55.8736 32.0799 55.8619 32.4258 55.5102C33.0341 54.9241 32.6405 54.1387 31.5431 53.7519C30.8752 53.5291 29.8971 53.5291 29.4439 53.7636Z" fill="#2A2619"/>
</svg>
