<svg width="44" height="49" viewBox="0 0 44 49" fill="none" xmlns="http://www.w3.org/2000/svg">
<line y1="-3.5" x2="44" y2="-3.5" transform="matrix(4.37114e-08 1 1 -4.37114e-08 42.8507 5)" stroke="#706C61" stroke-width="7"/>
<path d="M41.0212 3L4.12267 38.3138" stroke="#706C61" stroke-width="7"/>
<path d="M1.93097 42.4263C1.10342 42.3881 0.463474 41.6864 0.501606 40.8588L1.12301 27.3731C1.16114 26.5456 1.86292 25.9056 2.69047 25.9437C3.51801 25.9819 4.15796 26.6837 4.11983 27.5112L3.56747 39.4985L15.5548 40.0508C16.3823 40.089 17.0222 40.7907 16.9841 41.6183C16.946 42.4458 16.2442 43.0858 15.4167 43.0477L1.93097 42.4263ZM41.4338 6.99813L3.01073 42.0362L0.989303 39.8195L39.4124 4.78141L41.4338 6.99813Z" fill="#706C61"/>
</svg>
