<svg width="45" height="81" viewBox="0 0 45 81" fill="none" xmlns="http://www.w3.org/2000/svg">
<line y1="-3.5" x2="44" y2="-3.5" transform="matrix(4.37114e-08 1 1 -4.37114e-08 44.2089 37)" stroke="#706C61" stroke-width="7"/>
<path d="M41.6838 39.2339L4.70891 4" stroke="#706C61" stroke-width="7"/>
<path d="M0.500009 1.99992C0.50001 1.17149 1.17158 0.499919 2.00001 0.499917L15.5 0.499919C16.3284 0.499918 17 1.17149 17 1.99992C17 2.82834 16.3284 3.49992 15.5 3.49992L3.50001 3.49992L3.50001 15.4999C3.50001 16.3283 2.82844 16.9999 2.00001 16.9999C1.17158 16.9999 0.50001 16.3283 0.500011 15.4999L0.500009 1.99992ZM37.7089 39.8301L0.93935 3.06058L3.06067 0.939258L39.8302 37.7088L37.7089 39.8301Z" fill="#706C61"/>
</svg>
