<svg height="512pt" preserveAspectRatio="xMidYMid meet" viewBox="0 0 512 512" width="512pt" xmlns="http://www.w3.org/2000/svg"><g transform="matrix(.1 0 0 -.1 0 512)"><path d="m2416 5099-26-20v-235c0-221 1-235 20-254 27-27 81-26 106 1 14 16 20 42 24 111l5 90 69-100c76-112 105-133 155-113 15 7 33 24 40 37 15 33 15 410 0 453-19 54-79 69-117 28-19-20-22-35-22-116 0-51-4-90-9-87s-37 47-72 98c-34 50-71 100-81 110-24 24-59 23-92-3z"/><path d="m2536 4449c-14-17-26-37-26-45 0-22-91-809-94-812-2-1-38-11-82-23-93-24-246-94-317-145-48-34-53-36-82-24-52 21-82 23-119 5-61-29-85-110-52-173 13-26 12-31-26-87-58-86-115-211-141-310-17-68-26-87-42-90-11-2-200-24-420-49l-400-45-27-31c-17-18-28-42-28-59 0-33 31-77 63-87 12-4 204-28 426-53l404-46 23-85c27-102 76-210 137-305 43-66 45-70 31-97-24-47-18-103 16-142 39-44 77-53 138-31l47 17 55-37c78-53 200-109 304-140 50-14 91-27 92-28 3-3 94-788 94-810 0-9 12-29 26-46 20-25 34-31 64-31 45 0 86 29 94 68 3 15 26 204 51 421s46 396 48 398c2 1 43 14 93 28 107 31 211 79 295 135l61 42 53-17c45-16 57-17 84-5 73 30 103 114 65 179-16 27-15 29 20 78 66 92 126 230 163 373l8 34 406 47c224 26 416 50 427 54 31 9 62 53 62 86 0 17-11 41-27 59l-28 30-400 46c-220 25-409 47-420 49-15 3-24 20-37 68-30 113-77 221-134 308-54 82-55 85-40 111 36 60 10 144-52 174-36 17-66 15-117-6-29-12-34-10-82 24-72 51-227 123-319 146-42 11-79 21-80 23-2 2-24 181-49 398s-47 405-51 419c-10 44-43 70-90 70-35 0-47-5-68-31zm134-1118 61-534-63-64-63-63-64 64-64 64 17 138c9 77 16 148 16 160 0 33-36 64-75 64-56 0-69-28-88-186-9-75-18-138-19-139-4-4-548-65-575-65-21 0-21 1-7 48 18 58 93 219 110 233 9 7 22-8 49-57 20-36 46-75 56-85 25-25 74-24 99 1 35 35 26 75-45 193-35 59-62 107-59 107s55-29 115-65 118-65 130-65c54 0 89 52 68 102-7 18-36 42-85 70-41 24-72 47-71 52 5 17 119 75 197 101 92 31 90 31 90 1 0-31 28-63 61-71 19-5 34 0 55 18 27 24 28 29 56 258 15 129 28 243 28 254 3 44 12-21 70-534zm232 73c76-27 198-90 198-102 0-4-34-27-76-51-72-41-94-67-94-107 0-23 46-64 72-64 13 0 73 29 133 64 61 35 111 62 113 61 2-2-26-55-63-118-53-92-65-119-59-141 12-48 77-73 115-43 8 7 35 45 59 86 40 68 45 72 58 55 44-60 124-256 109-270-3-4-137 8-297 27l-290 33-5 30c-5 29-65 549-65 561 0 9 18 5 92-21zm-472-779 64-65-62-63-63-63-62 7c-34 5-267 31-517 59s-463 54-473 58c-11 5 52 15 150 26 146 16 879 102 893 105 3 1 35-28 70-64zm958-1c281-32 512-61 512-64s-237-32-528-66l-527-61-68 66-68 66 65 63c45 43 71 62 83 59 10-3 249-31 531-63zm-720-237 63-64-60-525c-34-289-61-534-61-544 0-64-16 54-71 534l-62 543 59 60c32 32 61 59 64 59s34-29 68-63zm-611-68c147-17 269-32 271-34 6-5 72-589 67-593-13-14-274 100-282 123-2 6 30 30 71 54 82 48 104 79 87 124-11 29-39 47-71 47-12 0-71-29-131-65-61-36-112-65-114-65s25 49 60 109c73 123 82 168 43 195-30 21-74 20-96-2-9-9-35-48-57-85-36-62-41-66-53-50-37 49-112 223-112 260 0 18 10 17 317-18zm1413 16c0-34-77-212-113-259-13-17-17-13-60 61-25 44-53 83-62 87-48 18-99-7-110-54-4-19 10-51 59-135 36-60 66-113 66-117s-49 22-109 57c-60 36-121 65-136 65-28 0-75-40-75-64 0-41 22-66 94-107 42-24 76-46 76-49 0-10-104-67-170-92-78-30-120-41-120-31 1 29 68 584 71 587 6 5 495 63 547 65 31 1 42-3 42-14z"/><path d="m2140 4300c-617-166-1097-642-1270-1258-38-134-39-174-4-201 60-47 106-11 134 104 115 485 453 899 905 1110 99 46 249 98 335 116 68 14 100 41 100 85 0 37-38 75-74 73-11 0-68-13-126-29z"/><path d="m2896 4309c-19-15-26-30-26-54 0-43 29-71 84-81 122-20 339-104 478-185 185-107 398-302 527-484 111-157 207-379 261-602 18-73 70-102 118-66 37 27 38 63 6 185-164 624-667 1124-1291 1282-122 31-124 31-157 5z"/><path d="m2118 3980c-339-115-651-377-827-694-62-111-133-297-135-349-1-45 29-77 73-77 40 0 64 34 96 130 62 191 171 366 325 521 156 157 330 265 537 333 93 31 128 62 118 106-8 33-41 60-74 60-14 0-65-14-113-30z"/><path d="m2925 3985c-28-27-31-45-14-78 16-29 21-33 114-63 215-72 376-174 544-343 123-124 150-137 193-93 49 49 23 98-132 245-150 143-378 279-564 336-88 27-111 26-141-4z"/><path d="m3830 3240c-24-24-26-60-3-103 9-18 35-84 57-147 36-99 45-116 69-124 36-13 79 3 94 35 10 20 9 35-1 75-21 79-87 237-109 262-26 28-79 30-107 2z"/><path d="m4815 2847c-17-8-36-26-43-41-16-36-17-454-1-489 19-41 53-52 161-52 98 0 100 1 125 29 18 22 23 35 18 55-12 49-33 61-102 61h-63v40 40h49c42 0 53 4 70 26 27 34 26 57-2 89-17 20-35 28-70 32-46 5-47 7-47 39v34h63c69 0 90 12 102 61 5 20 0 33-18 55-24 28-29 29-119 32-62 1-103-2-123-11z"/><path d="m68 2813c-8-10-18-26-21-35-4-10 13-116 37-235 40-196 47-220 71-240 62-54 114-17 154 112l28 90 27-90c28-93 58-135 97-135 29 0 77 27 83 47 11 35 86 417 86 438 0 31-41 65-77 65-43 0-64-29-83-118l-17-77-27 87c-28 92-42 108-94 108-40 0-60-26-87-112-24-78-27-77-45 15-7 33-20 67-31 78-24 24-81 25-101 2z"/><path d="m866 2279c-33-26-34-57-1-184 77-294 249-590 475-814 135-135 164-149 214-110 19 15 26 30 26 55 0 30-12 45-106 136-108 105-201 216-267 321-86 135-175 345-206 487-19 83-30 106-57 119-35 16-48 14-78-10z"/><path d="m4251 2281c-11-11-25-39-31-63-95-373-229-611-481-852-209-200-444-331-733-407-68-17-116-36-124-46-21-29-11-83 19-105 24-18 32-19 85-8 179 36 431 141 590 245 395 257 663 634 779 1091 22 90 20 119-11 143-33 26-68 27-93 2z"/><path d="m1175 2235c-30-29-30-35-4-120 139-452 515-834 963-979 87-29 108-31 137-15 44 23 44 107 1 124-10 4-55 20-102 37-407 145-704 443-845 849-19 57-43 110-52 117-27 20-72 14-98-13z"/><path d="m3937 2248c-9-7-30-53-47-103-123-356-359-628-681-790-61-30-148-67-195-81-77-24-87-30-102-61s-15-37-1-61c25-46 58-50 157-18 448 144 807 501 958 951 27 81 32 109 25 128-17 43-78 62-114 35z"/><path d="m1721 1094c-23-30-26-55-10-86 23-43 345-174 513-208 53-11 61-10 85 8 30 22 40 76 19 105-8 10-56 29-123 46-127 34-205 62-328 120-104 48-128 50-156 15z"/><path d="m2515 534c-65-33-95-79-95-143 0-84 37-126 146-167 77-29 99-49 73-65s-64-9-109 21c-64 43-99 39-126-12-21-41-4-80 52-119 134-92 313-43 344 95 20 88-32 159-151 207-43 18-79 37-79 41 0 15 61 8 100-12 51-26 66-25 95 5 51 50 18 117-74 150-56 19-138 19-176-1z"/></g></svg>