<svg width="54" height="102" viewBox="0 0 54 102" fill="none" xmlns="http://www.w3.org/2000/svg">
<line y1="-3.5" x2="90" y2="-3.5" transform="matrix(2.137e-08 1 1 -2.137e-08 54 12)" stroke="#706C61" stroke-width="7"/>
<line y1="-3.5" x2="49" y2="-3.5" transform="matrix(-1 0 0 1 54 15)" stroke="#706C61" stroke-width="7"/>
<path d="M0.939339 13.0607C0.353554 12.4749 0.353554 11.5251 0.939339 10.9393L10.4853 1.39339C11.0711 0.807608 12.0208 0.807608 12.6066 1.39339C13.1924 1.97918 13.1924 2.92893 12.6066 3.51472L4.12132 12L12.6066 20.4853C13.1924 21.0711 13.1924 22.0208 12.6066 22.6066C12.0208 23.1924 11.0711 23.1924 10.4853 22.6066L0.939339 13.0607ZM54 13.5L2 13.5L2 10.5L54 10.5L54 13.5Z" fill="#706C61"/>
</svg>
